<?xml version="1.0" encoding="utf-8"?>
<!-- Uploaded to: SVG Repo, www.svgrepo.com, Generator: SVG Repo Mixer Tools -->
<svg width="800px" height="800px" viewBox="-0.27 0 205.439 205.439" xmlns="http://www.w3.org/2000/svg"><defs><style>.a{fill:#5199d1;}.b{fill:#211715;}.c{fill:#ffffff;}</style></defs><path class="a" d="M102.452,2.4c-59.127,0-100,45.8-100,99.382,0,59.957,41.748,101.246,100,101.246,60.5,0,100-41.675,100-101.246C202.456,47.83,161.371,2.4,102.452,2.4Z"/><path class="b" d="M102.452,0C80.176.036,58.01,6.667,40.141,20.146A100.821,100.821,0,0,0,4.692,70.783c-6.438,20.824-6.112,43.921.127,64.758a97.035,97.035,0,0,0,33.356,49.172c16.548,12.758,36.984,19.412,57.739,20.539,21.23,1.153,43.125-2.982,61.607-13.76a92.71,92.71,0,0,0,38.1-43.134,115.992,115.992,0,0,0,7.942-63.107,101.414,101.414,0,0,0-27.536-55.315A100.413,100.413,0,0,0,119.517,1.305,115.1,115.1,0,0,0,102.452,0c-3.089,0-3.094,4.8,0,4.8,21.365.034,42.38,6.384,59.571,19.212a95.122,95.122,0,0,1,33.566,47.969c6.1,19.752,5.864,41.5.308,61.353-5.1,18.228-15.3,34.692-30.054,46.641-15.193,12.3-34.517,18.855-53.958,20.306-20.43,1.526-41.371-1.93-59.412-11.9a90.365,90.365,0,0,1-38.1-41.069A103.023,103.023,0,0,1,5.94,118.146a109.165,109.165,0,0,1,.038-31.563,97.342,97.342,0,0,1,26.111-53A96.074,96.074,0,0,1,86.234,6a106.572,106.572,0,0,1,16.218-1.2C105.54,4.8,105.546,0,102.452,0Z"/><path class="c" d="M102.453,21.4c-47.931,0-81.061,37.123-81.061,80.563,0,48.6,33.843,82.073,81.064,82.073,49.04,0,81.063-33.783,81.063-82.073C183.519,58.223,150.215,21.4,102.453,21.4Z"/><path class="b" d="M102.453,19C84.292,19.032,66.2,24.432,51.645,35.44A82.244,82.244,0,0,0,22.83,76.506a91.728,91.728,0,0,0-.076,52.548,79.043,79.043,0,0,0,27.093,40.314c13.508,10.456,30.127,15.955,47.1,16.91,17.262.971,35.078-2.361,50.138-11.069a75.537,75.537,0,0,0,31.2-35.069,94.529,94.529,0,0,0,6.564-51.735,82.616,82.616,0,0,0-22.365-44.938,81.783,81.783,0,0,0-46-23.385A94.415,94.415,0,0,0,102.453,19c-3.089-.006-3.094,4.794,0,4.8a80.328,80.328,0,0,1,48.059,15.511,76.593,76.593,0,0,1,26.972,38.516c4.943,15.93,4.772,33.455.311,49.482a73.561,73.561,0,0,1-24.313,37.747c-12.233,9.892-27.849,15.159-43.508,16.308-16.467,1.208-33.333-1.578-47.867-9.63a72.858,72.858,0,0,1-30.738-33.254,86.73,86.73,0,0,1-6.682-48.723A78.5,78.5,0,0,1,45.756,46.971,77.492,77.492,0,0,1,89.485,24.745a85.785,85.785,0,0,1,12.968-.949C105.541,23.79,105.547,18.99,102.453,19Z"/><path class="b" d="M102.5,105.14h27.691c3.088,0,3.094-4.8,0-4.8H102.5c-3.089,0-3.094,4.8,0,4.8Z"/><path class="b" d="M100.1,60.765q0,17.435,0,34.871,0,3.528,0,7.056c0,3.088,4.805,3.093,4.8,0q-.028-17.176,0-34.352,0-3.788,0-7.575c0-3.089-4.8-3.094-4.8,0Z"/><path class="b" d="M99.988,37.038c0,1.445.011,2.89.012,4.334a2.475,2.475,0,0,0,.7,1.7,2.4,2.4,0,0,0,3.394,0,2.5,2.5,0,0,0,.7-1.7c0-1.444-.011-2.889-.012-4.334a2.476,2.476,0,0,0-.7-1.7,2.4,2.4,0,0,0-3.395,0,2.494,2.494,0,0,0-.7,1.7Z"/><path class="b" d="M99.988,164.056c0,1.445.011,2.89.012,4.334a2.475,2.475,0,0,0,.7,1.7,2.4,2.4,0,0,0,3.394,0,2.5,2.5,0,0,0,.7-1.7c0-1.444-.011-2.889-.012-4.334a2.476,2.476,0,0,0-.7-1.7,2.4,2.4,0,0,0-3.395,0,2.494,2.494,0,0,0-.7,1.7Z"/><path class="b" d="M168.07,100.309c-1.444,0-2.889.011-4.334.011a2.471,2.471,0,0,0-1.7.7,2.4,2.4,0,0,0,0,3.394,2.494,2.494,0,0,0,1.7.7c1.445,0,2.89-.011,4.334-.011a2.48,2.48,0,0,0,1.7-.7,2.4,2.4,0,0,0,0-3.4,2.486,2.486,0,0,0-1.7-.7Z"/><path class="b" d="M41.052,100.309c-1.444,0-2.889.011-4.334.011a2.471,2.471,0,0,0-1.7.7,2.4,2.4,0,0,0,0,3.394,2.494,2.494,0,0,0,1.7.7c1.445,0,2.89-.011,4.334-.011a2.48,2.48,0,0,0,1.7-.7,2.4,2.4,0,0,0,0-3.4,2.486,2.486,0,0,0-1.7-.7Z"/><path class="b" d="M67.479,47.051c.722,1.251,1.454,2.5,2.177,3.748a2.4,2.4,0,0,0,3.284.861,2.419,2.419,0,0,0,1.1-1.434,2.515,2.515,0,0,0-.241-1.849c-.723-1.252-1.455-2.5-2.178-3.749a2.4,2.4,0,0,0-3.283-.861,2.422,2.422,0,0,0-1.1,1.435,2.516,2.516,0,0,0,.242,1.849Z"/><path class="b" d="M130.988,157.052c.722,1.251,1.454,2.5,2.177,3.748a2.476,2.476,0,0,0,1.434,1.1,2.451,2.451,0,0,0,1.849-.242,2.417,2.417,0,0,0,1.1-1.434,2.513,2.513,0,0,0-.242-1.85c-.722-1.251-1.454-2.5-2.177-3.748a2.477,2.477,0,0,0-1.434-1.1,2.452,2.452,0,0,0-1.849.242,2.422,2.422,0,0,0-1.1,1.435,2.516,2.516,0,0,0,.242,1.849Z"/><path class="b" d="M158.057,67.8c-1.251.722-2.5,1.454-3.748,2.177a2.483,2.483,0,0,0-1.1,1.434,2.454,2.454,0,0,0,.242,1.85,2.428,2.428,0,0,0,1.434,1.1,2.522,2.522,0,0,0,1.85-.242c1.251-.723,2.5-1.455,3.748-2.177a2.478,2.478,0,0,0,1.1-1.435,2.452,2.452,0,0,0-.242-1.849,2.417,2.417,0,0,0-1.434-1.1,2.518,2.518,0,0,0-1.85.242Z"/><path class="b" d="M48.056,131.308c-1.251.722-2.5,1.454-3.748,2.177a2.484,2.484,0,0,0-1.1,1.434,2.458,2.458,0,0,0,.242,1.85,2.424,2.424,0,0,0,1.435,1.1,2.515,2.515,0,0,0,1.849-.241c1.251-.723,2.5-1.455,3.748-2.178a2.4,2.4,0,0,0,.861-3.283,2.417,2.417,0,0,0-1.434-1.1,2.518,2.518,0,0,0-1.85.242Z"/><path class="b" d="M133.165,44.628c-.723,1.252-1.455,2.5-2.177,3.749a2.49,2.49,0,0,0-.242,1.849A2.4,2.4,0,0,0,133.7,51.9a2.494,2.494,0,0,0,1.434-1.1c.723-1.251,1.455-2.5,2.177-3.748a2.485,2.485,0,0,0,.242-1.849,2.4,2.4,0,0,0-2.952-1.677,2.5,2.5,0,0,0-1.434,1.1Z"/><path class="b" d="M69.656,154.629c-.723,1.251-1.455,2.5-2.177,3.748a2.492,2.492,0,0,0-.242,1.85,2.448,2.448,0,0,0,1.1,1.434,2.423,2.423,0,0,0,1.849.242,2.494,2.494,0,0,0,1.434-1.1c.723-1.251,1.455-2.5,2.178-3.748a2.49,2.49,0,0,0,.241-1.849,2.4,2.4,0,0,0-2.952-1.677,2.494,2.494,0,0,0-1.434,1.1Z"/><path class="b" d="M44.308,71.944c1.252.722,2.5,1.454,3.748,2.177a2.5,2.5,0,0,0,1.85.242,2.4,2.4,0,0,0,1.676-2.953,2.494,2.494,0,0,0-1.1-1.434c-1.251-.723-2.5-1.455-3.748-2.177a2.49,2.49,0,0,0-1.849-.242,2.4,2.4,0,0,0-1.677,2.952,2.5,2.5,0,0,0,1.1,1.435Z"/><path class="b" d="M154.309,135.452c1.251.723,2.5,1.455,3.748,2.178a2.492,2.492,0,0,0,1.85.241,2.4,2.4,0,0,0,1.676-2.952,2.494,2.494,0,0,0-1.1-1.434c-1.251-.723-2.5-1.455-3.748-2.177a2.492,2.492,0,0,0-1.85-.242,2.448,2.448,0,0,0-1.434,1.1,2.423,2.423,0,0,0-.242,1.849,2.494,2.494,0,0,0,1.1,1.434Z"/></svg>